<svg width="1653" height="993" xmlns="http://www.w3.org/2000/svg" xmlns:xlink="http://www.w3.org/1999/xlink" xml:space="preserve" overflow="hidden"><defs><clipPath id="clip0"><rect x="3031" y="1455" width="1653" height="993"/></clipPath></defs><g clip-path="url(#clip0)" transform="translate(-3031 -1455)"><rect x="3032" y="1456" width="1650" height="990" fill="#FFFFFF"/><g><path d="M3354.61 1659.5 3354.61 2339.5M3406.61 1659.5 3406.61 2339.5M3458.61 1659.5 3458.61 2339.5M3511.62 1659.5 3511.62 2339.5M3615.62 1659.5 3615.62 2339.5M3667.62 1659.5 3667.62 2339.5M3719.62 1659.5 3719.62 2339.5M3771.62 1659.5 3771.62 2339.5M3875.63 1659.5 3875.63 2339.5M3927.63 1659.5 3927.63 2339.5M3979.63 1659.5 3979.63 2339.5M4032.63 1659.5 4032.63 2339.5M4136.64 1659.5 4136.64 2339.5M4188.64 1659.5 4188.64 2339.5M4240.64 1659.5 4240.64 2339.5M4292.64 1659.5 4292.64 2339.5M4396.64 1659.5 4396.64 2339.5M4448.65 1659.5 4448.65 2339.5M4500.65 1659.5 4500.65 2339.5M4552.65 1659.5 4552.65 2339.5" stroke="#F2F2F2" stroke-width="3.4375" stroke-linejoin="round" stroke-miterlimit="10" fill="none"/></g><g><path d="M3563.62 1659.5 3563.62 2339.5M3823.63 1659.5 3823.63 2339.5M4084.63 1659.5 4084.63 2339.5M4344.64 1659.5 4344.64 2339.5M4605.5 1659.5 4605.5 2339.5" stroke="#D9D9D9" stroke-width="3.4375" stroke-linejoin="round" stroke-miterlimit="10" fill="none"/></g><g><path d="M3824.13 2257.07 3303 2257.07 3303 2196.07 3824.13 2196.07ZM4255.14 2030.07 3303 2030.07 3303 1969.06 4255.14 1969.06ZM4397.14 1803.06 3303 1803.06 3303 1742.06 4397.14 1742.06Z" fill="#4EA72E"/></g><g><path d="M0 0 0.000360892 680" stroke="#D9D9D9" stroke-width="3.4375" stroke-linejoin="round" stroke-miterlimit="10" fill="none" fill-rule="evenodd" transform="matrix(1 0 0 -1 3302.5 2339.5)"/></g><g><path d="M3289.5 2339.5 3302.5 2339.5M3289.5 2112.57 3302.5 2112.57M3289.5 1886.56 3302.5 1886.56M3289.5 1659.5 3302.5 1659.5" stroke="#D9D9D9" stroke-width="3.4375" stroke-linejoin="round" stroke-miterlimit="10" fill="none"/></g><g><text fill="#404040" font-family="Aptos Narrow,Aptos Narrow_MSFontService,sans-serif" font-weight="400" font-stretch="semi-condensed" font-size="41" transform="matrix(1 0 0 1 3743.74 2240)">1.0</text></g><g><text fill="#404040" font-family="Aptos Narrow,Aptos Narrow_MSFontService,sans-serif" font-weight="400" font-stretch="semi-condensed" font-size="41" transform="matrix(1 0 0 1 4174.66 2013)">1.8</text></g><g><text fill="#404040" font-family="Aptos Narrow,Aptos Narrow_MSFontService,sans-serif" font-weight="400" font-stretch="semi-condensed" font-size="41" transform="matrix(1 0 0 1 4316.79 1787)">2.1</text></g><g><text fill="#595959" font-family="Aptos Narrow,Aptos Narrow_MSFontService,sans-serif" font-weight="400" font-stretch="semi-condensed" font-size="41" transform="matrix(1 0 0 1 3276.55 2405)">0.0</text></g><g><text fill="#595959" font-family="Aptos Narrow,Aptos Narrow_MSFontService,sans-serif" font-weight="400" font-stretch="semi-condensed" font-size="41" transform="matrix(1 0 0 1 3537.03 2405)">0.5</text></g><g><text fill="#595959" font-family="Aptos Narrow,Aptos Narrow_MSFontService,sans-serif" font-weight="400" font-stretch="semi-condensed" font-size="41" transform="matrix(1 0 0 1 3797.51 2405)">1.0</text></g><g><text fill="#595959" font-family="Aptos Narrow,Aptos Narrow_MSFontService,sans-serif" font-weight="400" font-stretch="semi-condensed" font-size="41" transform="matrix(1 0 0 1 4057.98 2405)">1.5</text></g><g><text fill="#595959" font-family="Aptos Narrow,Aptos Narrow_MSFontService,sans-serif" font-weight="400" font-stretch="semi-condensed" font-size="41" transform="matrix(1 0 0 1 4318.46 2405)">2.0</text></g><g><text fill="#595959" font-family="Aptos Narrow,Aptos Narrow_MSFontService,sans-serif" font-weight="400" font-stretch="semi-condensed" font-size="41" transform="matrix(1 0 0 1 4578.93 2405)">2.5</text></g><g><text fill="#595959" font-family="Aptos Narrow,Aptos Narrow_MSFontService,sans-serif" font-weight="400" font-stretch="semi-condensed" font-size="41" transform="matrix(1 0 0 1 3061.67 2238)">Optimal PLA</text></g><g><text fill="#595959" font-family="Aptos Narrow,Aptos Narrow_MSFontService,sans-serif" font-weight="400" font-stretch="semi-condensed" font-size="41" transform="matrix(1 0 0 1 3098.22 2011)">Sim-Piece</text></g><g><text fill="#595959" font-family="Aptos Narrow,Aptos Narrow_MSFontService,sans-serif" font-weight="400" font-stretch="semi-condensed" font-size="41" transform="matrix(1 0 0 1 3105.46 1784)">Mix-Piece</text></g><g><text fill="#595959" font-family="Aptos Display,Aptos Display_MSFontService,sans-serif" font-weight="400" font-size="92" transform="matrix(1 0 0 1 3345.27 1576)">Relative Compression Ratio</text></g><rect x="3032.5" y="1456.5" width="1650" height="990" stroke="#D9D9D9" stroke-width="3.4375" stroke-linejoin="round" stroke-miterlimit="10" fill="none"/></g></svg>